<svg xmlns="http://www.w3.org/2000/svg" viewBox="0 0 140 32"><path d="M76.2 23.8c-5.5 4.1-13.5 6.3-20.4 6.3-9.6 0-18.3-3.6-24.9-9.5-.5-.5-.1-1.1.5-.7 7.1 4.1 15.9 6.6 24.9 6.6 6.1 0 12.8-1.3 19-3.9.9-.4 1.7.6.8 1.3" fill="#f90"/><path d="M78.5 21.3c-.7-.9-4.7-.4-6.4-.2-.5.1-.6-.4-.1-.7 3.2-2.2 8.3-1.6 8.9-.8.6.8-.2 6-3.1 8.4-.4.4-.9.2-.7-.3.7-1.7 2.1-5.4 1.4-6.3" fill="#f90"/><path d="M72.3 5.3V3c0-.3.2-.6.6-.6h9.6c.3 0 .6.2.6.6v2c0 .3-.3.7-.8 1.4l-5 7.1c1.9 0 3.8.2 5.5 1.2.4.2.5.5.5.9v2.5c0 .3-.4.7-.7.5-3-1.6-6.9-1.7-10.2 0-.3.2-.7-.2-.7-.5v-2.4c0-.4 0-1 .4-1.5l5.8-8.3h-5c-.3 0-.6-.2-.6-.6zM30 17.8h-2.9c-.3 0-.5-.2-.5-.5V3.1c0-.3.3-.6.6-.6h2.7c.3 0 .5.2.5.5v1.9h.1c.7-1.9 2.1-2.8 3.9-2.8 1.8 0 3 .9 3.8 2.8.7-1.9 2.3-2.8 4.1-2.8 1.2 0 2.6.5 3.4 1.6.9 1.3.7 3.1.7 4.7v9.5c0 .3-.3.5-.6.5h-2.9c-.3 0-.5-.2-.5-.5V9.6c0-.6.1-2.2-.1-2.8-.2-1-.9-1.3-1.7-1.3-.7 0-1.5.5-1.8 1.2-.3.8-.2 2-.2 2.9v8.3c0 .3-.3.5-.6.5h-2.9c-.3 0-.5-.2-.5-.5V9.6c0-1.7.3-4.1-1.8-4.1-2.1 0-2 2.4-2 4.1v8.3c0 .3-.3.5-.6.5zM59.3 2.1c4.4 0 6.7 3.8 6.7 8.5 0 4.6-2.6 8.2-6.7 8.2-4.3 0-6.6-3.8-6.6-8.4 0-4.7 2.4-8.3 6.6-8.3zm0 3.1c-2.2 0-2.3 3-2.3 4.8 0 1.8 0 5.8 2.3 5.8 2.2 0 2.4-3.2 2.4-5.1 0-1.3-.1-2.8-.4-4-.3-1-.9-1.5-1.9-1.5zM88.6 17.8h-2.9c-.3 0-.5-.2-.5-.5V3c0-.3.3-.5.6-.5h2.7c.3 0 .4.2.5.4v2.3h.1c.8-2.1 2-3 4-3 1.3 0 2.6.5 3.4 1.7.8 1.2.8 3.2.8 4.7v9.2c0 .3-.3.5-.6.5H93.8c-.3 0-.5-.2-.5-.5V9.4c0-1.7.2-4.1-1.8-4.1-.7 0-1.4.5-1.7 1.2-.4.9-.5 1.8-.5 2.9v8.4c0 .3-.3.5-.6.5zM18.3 11.2V10c-2.1 0-4.4.5-4.4 3 0 1.3.7 2.1 1.8 2.1.8 0 1.6-.5 2-1.3.6-1 .5-2 .5-3.1v-.5zm3 5.7c-.2.2-.5.2-.7.1-1-.8-1.1-1.2-1.7-2-1.6 1.6-2.7 2.1-4.8 2.1-2.5 0-4.4-1.5-4.4-4.6 0-2.4 1.3-4 3.1-4.8 1.6-.7 3.8-.8 5.5-1v-.4c0-.7.1-1.5-.4-2.1-.4-.5-1.1-.7-1.6-.7-1.1 0-2.1.6-2.4 1.8-.1.3-.2.5-.5.5l-2.8-.3c-.2-.1-.5-.2-.4-.6.6-3.2 3.5-4.2 6.1-4.2 1.3 0 3 .4 4 1.4 1.3 1.3 1.2 3.1 1.2 5v4.6c0 1.4.6 2 1.1 2.7.2.3.2.6 0 .8-.6.5-1.6 1.4-2.1 1.9l-.1-.1z" fill="#0a0a0a"/></svg>