<svg xmlns="http://www.w3.org/2000/svg" viewBox="0 0 140 32"><path d="M17.4 6.8L8 22.4h3.8l2.2-3.6h10.8l2.2 3.6H31L21.6 6.8h-4.2zm2.1 4.4l3.6 5.8h-7.2l3.6-5.8zm18.6-4.4v11c0 1.8-1.2 3-3 3s-3-1.2-3-3v-11h-3.6v11.2c0 3.6 2.6 6.2 6.2 6.2 1.8 0 3.2-.6 4.2-1.6v1.2h3.6V6.8h-4.4zm20.2 12.4c-2.4 0-4.2-2-4.2-4.8 0-2.8 1.8-4.8 4.2-4.8 2.4 0 4 2 4 4.8 0 2.8-1.6 4.8-4 4.8zm4-12.4h-3.6v1.4c-1.2-1.2-2.8-1.8-4.6-1.8-4.2 0-7.4 3.6-7.4 8.2s3.2 8 7.4 8c1.8 0 3.4-.6 4.6-1.8v1.4h3.6V6.8zm5.4-4.6h3.6v20h-3.6v-20zm11 0v4.6h-2.4v3.2h2.4v5.6c0 3.8 1.8 5.6 5.6 5.6 1 0 2-.2 2.8-.4v-3.2c-.6.2-1.2.4-2 .4-1.6 0-2.8-.6-2.8-2.6V10h4.6V6.8h-4.6V2.2h-3.6zm20.8 4.2c-4.6 0-8.2 3.6-8.2 8.2 0 4.6 3.6 8 8.2 8 2.8 0 5.2-1.2 6.6-3l-2.6-2c-.8 1-2.2 1.8-3.8 1.8-2.4 0-4.2-1.4-4.6-3.6h11.8c.1-.4.1-.8.1-1.2 0-4.8-3.2-8.2-7.5-8.2zm-4.4 6.6c.4-2 2-3.4 4.2-3.4 2 0 3.6 1.4 3.8 3.4H95zm19.4-6.2c-1.8 0-3.2.6-4.2 1.6V2.2h-3.6v20h3.6V12c0-1.8 1.2-3 3-3s3 1.2 3 3v10.2h3.6v-11c0-3.8-2.6-6.4-5.4-6.4zm18.8 12c-2.4 0-4-2-4-4.8s1.6-4.8 4-4.8c1.4 0 2.6.6 3.4 1.6l2.6-2.4c-1.4-1.6-3.6-2.6-6-2.6-4.6 0-8 3.6-8 8.2s3.4 8 8 8c2 0 3.8-.6 5.2-1.8v-4.6c-1 1.8-2.8 3.2-5.2 3.2z" fill="#0a0a0a" fill-rule="evenodd"/></svg>