<svg xmlns="http://www.w3.org/2000/svg" viewBox="0 0 200 32"><path d="M10.8 6.4h3.2v12.2L25.2 6.4h3.8v19.2h-3.2V13.4L14.6 25.6h-3.8V6.4zm28.6 19.6c-3.2 0-5.6-1-7.2-2.8l2.2-2.2c1.2 1.4 3 2.2 5 2.2 2.2 0 3.4-.8 3.4-2.2 0-1.2-.8-1.8-3.6-2.4-3.8-.8-5.8-2-5.8-5 0-3 2.4-5 6-5 2.8 0 4.8.8 6.4 2.4l-2.2 2.2c-1.2-1.2-2.6-1.8-4.4-1.8-1.8 0-2.8.8-2.8 2 0 1.2.8 1.8 3.4 2.4 3.8.8 6 2 6 5 0 3.2-2.8 5.2-6.4 5.2zm14.8-16.6v-3h3.4v3h-3.4zm.1 16.2V10.2h3.2v15.4h-3.2zm11.4-15.8c1.4 0 2.6.4 3.6 1.2V3.4h3.2v22.2h-3.2v-1c-1 .8-2.2 1.4-3.6 1.4-3.8 0-6.4-3.2-6.4-8s2.6-8.2 6.4-8.2zm.6 13c1.6 0 3-1 3-1V14c0 0-1.4-1-3-1-2.6 0-4 2.2-4 5.2 0 3.2 1.4 4.6 4 4.6zm18.2-13c4.2 0 6.4 3.6 6.4 8.2 0 .4 0 .8-.1 1.2H80.2c.2 2.4 1.8 3.8 4 3.8 1.8 0 3-.8 3.8-2l2.4 1.8c-1.4 2-3.6 3.2-6.4 3.2-4.4 0-7.2-3.2-7.2-8 0-5 3-8.2 7.6-8.2zm-3.4 6.6h7.4c-.2-2.2-1.6-3.8-3.6-3.8-2.2 0-3.4 1.4-3.8 3.8zm25.2-6.2V3.4h3.2v22.2h-3.2v-1c-1 .8-2.2 1.4-3.6 1.4-3.8 0-6.4-3.2-6.4-8s2.6-8.2 6.4-8.2c1.4 0 2.6.4 3.6 1.2zm-3 13c1.6 0 3-1 3-1V14c0 0-1.4-1-3-1-2.6 0-4 2.2-4 5.2 0 3.2 1.4 4.6 4 4.6zm20.6-13c4.2 0 6.4 3.6 6.4 8.2 0 .4 0 .8-.1 1.2h-10.4c.2 2.4 1.8 3.8 4 3.8 1.8 0 3-.8 3.8-2l2.4 1.8c-1.4 2-3.6 3.2-6.4 3.2-4.4 0-7.2-3.2-7.2-8 0-5 3-8.2 7.6-8.2zm-3.4 6.6h7.4c-.2-2.2-1.6-3.8-3.6-3.8-2.2 0-3.4 1.4-3.8 3.8zm18.6-6.2c1.6 0 2.8.6 3.6 1.4V10.2h3.2v15.4h-3.2v-1c-.8.8-2 1.4-3.6 1.4-3.4 0-5.6-2.4-5.6-5.6V10.2h3.2v9.8c0 2 1.2 3.2 3 3.2 1.4 0 2.6-.8 3-1.2V10.2h-3.6zm15.6-6.2h3.2v3h-3.2v-3zm.1 6.2h3.2v15.4h-3.2V10.2zm9.6 15.8c-2.2 0-4.4-.8-6-2.4l2-2.2c1.2 1.2 2.6 1.8 4 1.8 1.6 0 2.6-.6 2.6-1.8 0-1-.6-1.6-2.8-2.2-3.4-.8-5.2-2-5.2-4.8 0-2.8 2.2-4.6 5.4-4.6 2.4 0 4.2.8 5.6 2.2l-2 2c-1-1-2.2-1.6-3.6-1.6-1.4 0-2.2.6-2.2 1.6 0 1 .6 1.4 3 2.2 3.2.8 5 2 5 4.8 0 3-2.6 5-5.8 5z" fill="#0a0a0a"/></svg>