<svg xmlns="http://www.w3.org/2000/svg" viewBox="0 0 160 32"><path d="M10.2 26c-3.2 0-5.8-1-7.4-2.8l2.4-2.4c1.2 1.4 3.2 2.2 5.2 2.2 2.2 0 3.4-.8 3.4-2.2 0-1.2-.8-1.8-3.8-2.4-3.8-.8-5.8-2-5.8-5 0-3 2.6-5 6.2-5 2.8 0 5 .8 6.4 2.4l-2.2 2.2c-1.2-1.2-2.8-1.8-4.4-1.8-1.8 0-2.8.8-2.8 2 0 1.2.8 1.8 3.4 2.4 4 .8 6.2 2 6.2 5 0 3.2-2.8 5.4-6.8 5.4zm17.4-.4c-4.6 0-7.4-3.4-7.4-8s2.8-8.2 7.4-8.2c4.6 0 7.4 3.6 7.4 8.2 0 4.6-2.8 8-7.4 8zm0-13.2c-2.6 0-4 2.2-4 5.2 0 3 1.4 5 4 5 2.6 0 4-2 4-5 0-3-1.4-5.2-4-5.2zm20 13.2c-1.4 0-2.6-.4-3.6-1.2v1h-3.2V10h3.2v10c0 0 1.4 1 3 1 1.6 0 2.6-1 2.6-3V10h3.2v8.6c0 3.6-2 5-5.2 5zm10.6-.2V10h3.2v1c1-.8 2.2-1.4 3.6-1.4 3.4 0 5.6 2.4 5.6 5.6V25.4h-3.2v-9.8c0-2-1.2-3.2-3-3.2-1.4 0-2.6.8-3 1.2v11.8h-3.2zm22.2.4c-1.4 0-2.6-.4-3.6-1.2v1h-3.2V3.4h3.2V11c1-.8 2.2-1.4 3.6-1.4 3.8 0 6.4 3.2 6.4 8.2 0 4.8-2.6 8-6.4 8zm-.6-13c-1.6 0-3 1-3 1v8.4c0 0 1.4 1 3 1 2.6 0 4-1.4 4-4.6 0-3-1.4-5.2-4-5.8zm27.6 12.6h-3.4l-2.4-9-2.4 9h-3.4L93 10h3.4l2.4 9.4L101.2 10h3l2.4 9.4L109 10h3.4l-5.6 15.4zm9.8-15.8h3.2v15.4h-3.2V10zm.1-6.6h3v3.2h-3V3.4zm14.6 22.2c-1.4 0-2.6-.4-3.6-1.2v1h-3.2V3.4h3.2V11c1-.8 2.2-1.4 3.6-1.4 3.8 0 6.4 3.2 6.4 8.2 0 4.8-2.6 8-6.4 8zm-.6-13c-1.6 0-3 1-3 1v8.4c0 0 1.4 1 3 1 2.6 0 4-1.4 4-4.6 0-3-1.4-5.2-4-5.8zm18 13.4c-4.2 0-7.2-3.2-7.2-8 0-5 3-8.2 7.6-8.2 4.2 0 6.4 3.6 6.4 8.2 0 .4 0 .8-.1 1.2h-10.4c.2 2.4 1.8 3.8 4 3.8 1.8 0 3-.8 3.8-2l2.4 1.8c-1.4 2-3.6 3.2-6.5 3.2zm-3.6-9.4h7.4c-.2-2.2-1.6-3.8-3.6-3.8-2.2 0-3.4 1.4-3.8 3.8z" fill="#0a0a0a"/></svg>