<svg xmlns="http://www.w3.org/2000/svg" viewBox="0 0 80 32"><path d="M10.6 10.6H5.4V7.2h14v3.4h-5.2v14.4h-3.6V10.6zm16.8 15.2c-4.2 0-7.2-3.2-7.2-8 0-5 3-8.2 7.6-8.2 4.2 0 6.4 3.6 6.4 8.2 0 .4 0 .8-.1 1.2H23.8c.2 2.4 1.8 3.8 4 3.8 1.8 0 3-.8 3.8-2l2.4 1.8c-1.4 2-3.6 3.2-6.6 3.2zm-3.6-9.4h7.4c-.2-2.2-1.6-3.8-3.6-3.8-2.2 0-3.4 1.4-3.8 3.8zM39 3.4h3.2v22.2H39V3.4zm8.4-1h3.2v3.2h-3.2V2.4zm.1 7.2h3.2v16h-3.2v-16zm14.6 16.2c-3.8 0-6.4-3.2-6.4-8s2.6-8.2 6.4-8.2c1.4 0 2.6.4 3.6 1.2v-1h3.2v15.4h-3.2v-1c-1 .8-2.2 1.4-3.6 1.4zm.6-13.2c-2.6 0-4 2.2-4 5.2 0 3.2 1.4 4.6 4 4.6 1.6 0 3-1 3-1V13.8c0 0-1.4-1.2-3-1.2z" fill="#990AE3"/></svg>