<svg xmlns="http://www.w3.org/2000/svg" viewBox="0 0 140 32"><path d="M21.6 2.8L16 16.2 10.4 2.8H6l8.2 18.4h3.6L26 2.8h-4.4zm10.8 16.4c-2.6 0-4.4-2-4.4-4.8s1.8-4.8 4.4-4.8c2.6 0 4.4 2 4.4 4.8s-1.8 4.8-4.4 4.8zm0-12.8c-4.6 0-8.2 3.4-8.2 8s3.6 8 8.2 8c4.6 0 8.2-3.4 8.2-8s-3.6-8-8.2-8zm22.2 12.8c-2.4 0-4.2-2-4.2-4.8 0-2.8 1.8-4.8 4.2-4.8 2.4 0 4 2 4 4.8 0 2.8-1.6 4.8-4 4.8zm4-12.4v1.6c-1.2-1.2-2.8-2-4.8-2-4.2 0-7.4 3.4-7.4 8s3.2 8 7.4 8c2 0 3.6-.8 4.8-2V22c0 2.8-1.8 4.6-4.6 4.6-1.8 0-3.4-.8-4.4-2.2l-3 2c1.6 2.2 4.2 3.6 7.2 3.6 5 0 8.4-3.2 8.4-8.4V6.8h-3.6zm17.6 12.4c-2.4 0-4-2-4-4.8s1.6-4.8 4-4.8c1.4 0 2.6.6 3.4 1.6l2.6-2.4c-1.4-1.6-3.6-2.6-6-2.6-4.6 0-8 3.6-8 8.2s3.4 8 8 8c2 0 3.8-.6 5.2-1.8v-4.6c-1 1.8-2.8 3.2-5.2 3.2zm18 .4c-2.6 0-4.4-2-4.4-4.8s1.8-4.8 4.4-4.8c2.6 0 4.4 2 4.4 4.8s-1.8 4.8-4.4 4.8zm0-12.8c-4.6 0-8.2 3.4-8.2 8s3.6 8 8.2 8c4.6 0 8.2-3.4 8.2-8s-3.6-8-8.2-8zm18.6-.4h-3.6v10.2c0 1.6-.8 2.6-2.2 2.6-1.4 0-2.2-1-2.2-2.6V6.4h-3.6v10.8c0 3.2 2 5.8 5.2 5.8 1.4 0 2.6-.4 3.4-1.2v.8c0 2.6-1.4 4.2-3.6 4.2-1.4 0-2.6-.6-3.4-1.6l-2.4 2c1.2 1.6 3.4 2.8 5.8 2.8 4.2 0 6.6-2.8 6.6-7.4V6.4zm11 12.8c-2.6 0-4.2-2-4.2-4.8s1.6-4.8 4.2-4.8c1.6 0 3 .8 3.8 2l2.8-2c-1.6-2-4-3.2-6.6-3.2-4.6 0-8 3.4-8 8.2 0 4.6 3.4 8 8 8 2.6 0 5-1.2 6.6-3.2l-2.8-2c-.8 1.2-2.2 1.8-3.8 1.8z" fill="#0a0a0a"/></svg>