<svg xmlns="http://www.w3.org/2000/svg" viewBox="0 0 140 32"><path d="M17.5 2h4.2v28h-3.8V13.4L10.4 30H6L13.8 14.6 6.2 2h4.6l6.7 12.2V2zM42.4 30c-.3-.6-.5-1.3-.5-2.2-1.5 1.7-3.4 2.6-5.7 2.6-2.2 0-4-.6-5.3-1.9-1.3-1.2-2-2.8-2-4.7 0-2.3.9-4.1 2.6-5.3 1.8-1.2 4.2-1.8 7.4-1.8h2.8v-1.3c0-1.5-.4-2.7-1.3-3.6-.8-.9-2.1-1.3-3.8-1.3-1.5 0-2.7.4-3.7 1.1-1 .7-1.5 1.6-1.5 2.6h-3.6c0-1.2.4-2.3 1.3-3.4.8-1.1 2-1.9 3.4-2.5 1.5-.6 3-.9 4.8-.9 2.7 0 4.8.7 6.4 2.1 1.5 1.4 2.3 3.3 2.4 5.8v10.9c0 2.2.3 3.9.8 5.1V30h-3.7zm-5.6-2.7c1.3 0 2.5-.3 3.6-1 1.1-.7 1.9-1.6 2.4-2.7v-5.2h-2.2c-4.7 0-7 1.4-7 4.1 0 1.2.4 2.2 1.2 2.9.8.6 1.9.9 3 .9zM57.2 12.2h-4.8V30h-3.6V12.2h-4.4V9.6h4.4V7.2c0-2.3.7-4.1 2-5.4 1.3-1.3 3.1-2 5.3-2 1.1 0 2.1.2 3 .5l-.2 2.8c-.8-.2-1.6-.3-2.4-.3-1.2 0-2.2.4-2.9 1.2-.7.8-1 1.9-1 3.2v2.4h4.6v2.6zM72.8 30c-.3-.6-.5-1.3-.5-2.2-1.5 1.7-3.4 2.6-5.7 2.6-2.2 0-4-.6-5.3-1.9-1.3-1.2-2-2.8-2-4.7 0-2.3.9-4.1 2.6-5.3 1.8-1.2 4.2-1.8 7.4-1.8h2.8v-1.3c0-1.5-.4-2.7-1.3-3.6-.8-.9-2.1-1.3-3.8-1.3-1.5 0-2.7.4-3.7 1.1-1 .7-1.5 1.6-1.5 2.6h-3.6c0-1.2.4-2.3 1.3-3.4.8-1.1 2-1.9 3.4-2.5 1.5-.6 3-.9 4.8-.9 2.7 0 4.8.7 6.4 2.1 1.5 1.4 2.3 3.3 2.4 5.8v10.9c0 2.2.3 3.9.8 5.1V30h-3.7zm-5.6-2.7c1.3 0 2.5-.3 3.6-1 1.1-.7 1.9-1.6 2.4-2.7v-5.2h-2.2c-4.7 0-7 1.4-7 4.1 0 1.2.4 2.2 1.2 2.9.8.6 1.9.9 3 .9zM94.2 30h-3.6l-8.4-10.2L80 21.6V30h-3.6V1h3.6v17.2l1.8-2.2 7.8-8.4h4.4l-9.4 10L94.2 30zM106.4 30.4c-3.2 0-5.8-1.1-7.8-3.2-2-2.1-3-4.9-3-8.3v-.7c0-2.3.4-4.4 1.3-6.2.9-1.8 2.1-3.3 3.6-4.3 1.6-1 3.3-1.6 5.2-1.6 3.1 0 5.5 1 7.2 3.1 1.7 2 2.6 4.9 2.6 8.6v1.5H99.2c.1 2.3.8 4.2 2.1 5.6 1.4 1.4 3.1 2.2 5.2 2.2 1.5 0 2.7-.3 3.8-.9 1-.6 1.9-1.4 2.7-2.4l2.2 1.6c-2.1 3.3-5.2 5-9 5zm-.7-21.6c-1.7 0-3.2.6-4.3 1.9-1.2 1.3-1.9 3-2.2 5.3h12.4v-.3c-.1-2.2-.7-3.9-1.8-5.1-1.1-1.2-2.5-1.8-4.1-1.8zM127.4 21.8l5.2-12.2h3.8L128.2 28l-.4.8c-1.4 3.1-3.5 4.6-6.4 4.6l-.7-.1-1.4-.2v-2.9l1 .1c1.2 0 2.2-.2 2.8-.7.7-.5 1.3-1.4 1.8-2.6l.8-2.1-7.6-16.3h3.9l5.4 13z" fill="#0a0a0a"/></svg>